<svg version="1.1" id="Layer_1" xmlns="http://www.w3.org/2000/svg" xmlns:xlink="http://www.w3.org/1999/xlink" x="0px" y="0px"
	 width="80%" height="30%" viewBox="0 150 500 200" enable-background="new 0 0 500 500" xml:space="preserve">
<path fill="#FFFFFF" opacity="1.000000" stroke="none" 
	d="
M291.000000,501.000000 
	C194.000031,501.000000 97.500046,501.000000 1.000052,501.000000 
	C1.000035,334.333405 1.000035,167.666794 1.000017,1.000141 
	C167.666565,1.000094 334.333130,1.000094 500.999756,1.000047 
	C500.999847,167.666519 500.999847,334.333038 500.999939,500.999786 
	C431.166656,501.000000 361.333344,501.000000 291.000000,501.000000 
M334.500000,299.004242 
	C364.574768,299.004242 394.649567,299.004242 424.740479,299.004242 
	C424.740479,266.649078 424.740479,235.074387 424.740479,203.301941 
	C308.750671,203.301941 193.067017,203.301941 77.263290,203.301941 
	C77.263290,235.291840 77.263290,266.973969 77.263290,299.004272 
	C162.951523,299.004272 248.225769,299.004272 334.500000,299.004242 
z"/>
<path fill="#5EE1E6" opacity="1.000000" stroke="none" 
	d="
M334.000000,299.004272 
	C248.225769,299.004272 162.951523,299.004272 77.263290,299.004272 
	C77.263290,266.973969 77.263290,235.291840 77.263290,203.301941 
	C193.067017,203.301941 308.750671,203.301941 424.740479,203.301941 
	C424.740479,235.074387 424.740479,266.649078 424.740479,299.004242 
	C394.649567,299.004242 364.574768,299.004242 334.000000,299.004272 
M422.059509,245.268448 
	C422.059509,232.337662 422.059509,219.406891 422.059509,206.431976 
	C307.465027,206.431976 193.463745,206.431976 79.501205,206.431976 
	C79.501205,236.438370 79.501205,266.011017 79.501205,295.725159 
	C193.753815,295.725159 307.646454,295.725159 421.758057,295.725159 
	C421.758057,280.521210 421.758057,265.589172 421.605194,250.061432 
	C421.725861,248.784760 421.846527,247.508072 422.059509,245.268448 
z"/>
<path fill="#FDFEFE" opacity="1.000000" stroke="none" 
	d="
M421.758057,250.657120 
	C421.758057,265.589172 421.758057,280.521210 421.758057,295.725159 
	C307.646454,295.725159 193.753815,295.725159 79.501205,295.725159 
	C79.501205,266.011017 79.501205,236.438370 79.501205,206.431976 
	C193.463745,206.431976 307.465027,206.431976 422.059509,206.431976 
	C422.059509,219.406891 422.059509,232.337662 421.559753,245.637054 
	C416.763367,246.005661 412.466705,246.005661 407.779755,246.005661 
	C407.881378,247.837051 407.965515,249.352982 408.044098,250.769257 
	C410.305725,250.916138 412.014954,251.027130 414.466248,251.186325 
	C411.244781,254.750824 408.148590,255.029999 405.196777,252.758057 
	C402.297546,250.526520 402.123962,247.248062 404.011505,244.257339 
	C406.034576,241.051834 409.001007,241.112488 412.336365,242.378113 
	C414.965393,243.375687 417.807343,243.812073 421.022186,244.614410 
	C418.865692,236.982483 412.348328,233.672134 405.101318,235.691833 
	C398.041718,237.659302 394.328064,244.581909 396.501648,251.722382 
	C398.110992,257.009277 402.138763,260.056549 407.980835,260.407074 
	C414.836212,260.818390 418.758453,258.042694 421.758057,250.657120 
M250.875763,281.438599 
	C250.875763,258.370819 250.875763,235.303040 250.875763,212.332672 
	C195.483047,212.332672 140.920746,212.332672 86.398247,212.332672 
	C86.398247,238.369064 86.398247,264.073151 86.398247,289.655334 
	C141.354950,289.655334 195.913071,289.655334 250.875626,289.655334 
	C250.875626,287.016479 250.875626,284.715393 250.875763,281.438599 
M370.221497,255.295563 
	C370.289032,256.746521 370.356537,258.197449 370.429840,259.772522 
	C372.781616,259.772522 374.847626,259.772522 377.400757,259.772522 
	C377.400757,256.160278 377.400757,252.780975 377.400757,247.944901 
	C380.142365,251.554489 382.222382,253.870453 383.807343,256.486359 
	C385.808502,259.789093 388.302612,260.930115 392.007477,259.561157 
	C392.007477,251.691238 392.007477,243.932434 392.007477,235.952805 
	C389.771118,235.952805 387.685394,235.952805 384.975464,235.952805 
	C384.975464,239.628021 384.975464,243.086548 384.975464,246.314529 
	C379.385529,243.545471 379.514038,233.520615 370.221497,236.202377 
	C370.221497,242.396774 370.221497,248.366043 370.221497,255.295563 
M331.034485,239.610199 
	C331.034485,246.367767 331.034485,253.125320 331.034485,259.952362 
	C335.362152,259.952362 339.032288,260.146027 342.674927,259.911591 
	C349.989410,259.440765 354.475708,254.608673 354.379211,247.617325 
	C354.285614,240.835632 349.881012,236.329559 342.709106,235.863037 
	C339.720886,235.668686 336.685944,235.526199 333.730591,235.866592 
	C332.739075,235.980774 331.928223,237.663864 331.034485,239.610199 
M310.736786,258.001495 
	C313.640137,257.721252 318.407410,256.261292 319.111115,257.373199 
	C321.617615,261.333557 324.770203,259.617249 328.304840,260.003632 
	C325.054199,251.648239 321.962311,243.700928 318.512878,234.834579 
	C315.856323,235.804413 312.087036,236.023834 311.303619,237.666901 
	C307.930511,244.741562 305.433716,252.234009 302.174927,260.728699 
	C305.569031,259.907410 307.937988,259.334167 310.736786,258.001495 
M279.889740,239.561707 
	C279.889740,246.313675 279.889740,253.065628 279.889740,259.718994 
	C282.542297,259.718994 284.620605,259.718994 286.761200,259.718994 
	C286.895477,257.354218 287.013672,255.272339 287.131866,253.190445 
	C287.608948,252.948563 288.086029,252.706696 288.563110,252.464813 
	C289.864746,254.636932 290.694366,257.518097 292.598236,258.785431 
	C294.575073,260.101318 297.591278,259.855652 300.998383,260.437195 
	C299.218292,256.916626 297.968903,254.445679 296.760315,252.055450 
	C303.442993,245.435364 299.918121,236.915421 294.029633,236.128387 
	C289.940674,235.581879 285.740051,235.725693 281.599884,235.868088 
	C280.999725,235.888733 280.458618,237.627304 279.889740,239.561707 
M255.915070,242.093811 
	C257.827606,242.093811 259.740143,242.093811 262.094635,242.093811 
	C262.094635,248.459610 262.094635,254.177628 262.094635,259.671692 
	C264.626953,259.671692 266.685455,259.671692 269.196899,259.671692 
	C269.196899,253.634369 269.196899,247.924637 269.196899,242.267395 
	C271.770203,242.128952 273.867493,242.016129 275.859161,241.908981 
	C275.859161,239.695816 275.859161,237.821716 275.859161,235.972015 
	C268.616730,235.972015 261.705658,235.972015 254.228897,235.972015 
	C254.539520,238.150543 254.806488,240.022949 255.915070,242.093811 
M365.057678,242.541534 
	C365.057678,240.299561 365.057678,238.057587 365.057678,235.923737 
	C362.375488,235.923737 360.423004,235.923737 358.316315,235.923737 
	C358.316315,244.009872 358.316315,251.900818 358.316315,259.727661 
	C360.674500,259.727661 362.746002,259.727661 365.057678,259.727661 
	C365.057678,254.144867 365.057678,248.839523 365.057678,242.541534 
z"/>
<path fill="#0A0A0A" opacity="1.000000" stroke="none" 
	d="
M421.681641,250.359283 
	C418.758453,258.042694 414.836212,260.818390 407.980835,260.407074 
	C402.138763,260.056549 398.110992,257.009277 396.501648,251.722382 
	C394.328064,244.581909 398.041718,237.659302 405.101318,235.691833 
	C412.348328,233.672134 418.865692,236.982483 421.022186,244.614410 
	C417.807343,243.812073 414.965393,243.375687 412.336365,242.378113 
	C409.001007,241.112488 406.034576,241.051834 404.011505,244.257339 
	C402.123962,247.248062 402.297546,250.526520 405.196777,252.758057 
	C408.148590,255.029999 411.244781,254.750824 414.466248,251.186325 
	C412.014954,251.027130 410.305725,250.916138 408.044098,250.769257 
	C407.965515,249.352982 407.881378,247.837051 407.779755,246.005661 
	C412.466705,246.005661 416.763367,246.005661 421.513611,246.118530 
	C421.846527,247.508072 421.725861,248.784760 421.681641,250.359283 
z"/>
<path fill="#39B6FF" opacity="1.000000" stroke="none" 
	d="
M250.875702,281.926453 
	C250.875626,284.715393 250.875626,287.016479 250.875626,289.655334 
	C195.913071,289.655334 141.354950,289.655334 86.398247,289.655334 
	C86.398247,264.073151 86.398247,238.369064 86.398247,212.332672 
	C140.920746,212.332672 195.483047,212.332672 250.875763,212.332672 
	C250.875763,235.303040 250.875763,258.370819 250.875702,281.926453 
M126.026558,258.204620 
	C128.986298,258.810120 132.053040,260.194244 134.876236,259.806244 
	C137.809235,259.403198 141.533646,257.954437 142.991562,255.713547 
	C144.221085,253.823715 142.699615,250.144089 142.395828,247.256668 
	C142.212433,244.231598 143.084991,240.227554 141.482452,238.429749 
	C137.412155,233.863419 131.571381,235.647156 125.999565,235.676132 
	C125.999565,243.301773 125.999565,250.279144 126.026558,258.204620 
M164.894791,258.097595 
	C165.482239,258.689087 166.069687,259.280579 166.657150,259.872070 
	C167.082748,259.272980 167.828079,258.697937 167.875336,258.070343 
	C168.031006,256.003204 167.933945,253.917007 167.933945,252.186859 
	C176.347900,248.802765 175.332932,260.744965 182.578873,259.758179 
	C180.583633,256.646698 178.912643,254.040833 177.076706,251.177765 
	C181.467560,248.968201 183.481186,245.609467 182.015396,240.934967 
	C180.460327,235.975739 176.162994,235.635788 171.910431,235.486145 
	C169.670929,235.407349 167.426346,235.472214 164.873947,235.472214 
	C164.873947,243.247574 164.873947,250.208038 164.894791,258.097595 
M194.622513,235.470779 
	C193.419800,236.189682 191.199234,236.872421 191.172226,237.633072 
	C190.909668,245.027283 191.014359,252.434555 191.014359,259.966553 
	C194.799026,259.966553 197.798355,260.141113 200.770477,259.931000 
	C207.391617,259.462952 211.821899,254.714996 211.964783,248.185059 
	C212.110855,241.508850 208.128113,236.808319 201.450882,235.900024 
	C199.481537,235.632141 197.479218,235.606827 194.622513,235.470779 
M154.444092,236.126678 
	C153.651474,236.620514 152.178787,237.100601 152.168503,237.610245 
	C152.019318,244.993286 152.066238,252.380280 152.066238,259.994110 
	C155.536713,258.557159 155.728806,256.624329 154.444092,236.126678 
z"/>
<path fill="#0A0A0A" opacity="1.000000" stroke="none" 
	d="
M370.221497,254.815430 
	C370.221497,248.366043 370.221497,242.396774 370.221497,236.202377 
	C379.514038,233.520615 379.385529,243.545471 384.975464,246.314529 
	C384.975464,243.086548 384.975464,239.628021 384.975464,235.952805 
	C387.685394,235.952805 389.771118,235.952805 392.007477,235.952805 
	C392.007477,243.932434 392.007477,251.691238 392.007477,259.561157 
	C388.302612,260.930115 385.808502,259.789093 383.807343,256.486359 
	C382.222382,253.870453 380.142365,251.554489 377.400757,247.944901 
	C377.400757,252.780975 377.400757,256.160278 377.400757,259.772522 
	C374.847626,259.772522 372.781616,259.772522 370.429840,259.772522 
	C370.356537,258.197449 370.289032,256.746521 370.221497,254.815430 
z"/>
<path fill="#050505" opacity="1.000000" stroke="none" 
	d="
M331.034607,239.120026 
	C331.928223,237.663864 332.739075,235.980774 333.730591,235.866592 
	C336.685944,235.526199 339.720886,235.668686 342.709106,235.863037 
	C349.881012,236.329559 354.285614,240.835632 354.379211,247.617325 
	C354.475708,254.608673 349.989410,259.440765 342.674927,259.911591 
	C339.032288,260.146027 335.362152,259.952362 331.034485,259.952362 
	C331.034485,253.125320 331.034485,246.367767 331.034607,239.120026 
M339.408478,241.983017 
	C338.793427,245.831757 338.178345,249.680496 337.522766,253.782822 
	C342.706970,253.708481 346.686432,253.588013 347.080902,248.346817 
	C347.434174,243.652679 344.545197,241.980240 339.408478,241.983017 
z"/>
<path fill="#0D0D0D" opacity="1.000000" stroke="none" 
	d="
M310.521851,258.381226 
	C307.937988,259.334167 305.569031,259.907410 302.174927,260.728699 
	C305.433716,252.234009 307.930511,244.741562 311.303619,237.666901 
	C312.087036,236.023834 315.856323,235.804413 318.512878,234.834579 
	C321.962311,243.700928 325.054199,251.648239 328.304840,260.003632 
	C324.770203,259.617249 321.617615,261.333557 319.111115,257.373199 
	C318.407410,256.261292 313.640137,257.721252 310.521851,258.381226 
z"/>
<path fill="#050505" opacity="1.000000" stroke="none" 
	d="
M279.889954,239.066299 
	C280.458618,237.627304 280.999725,235.888733 281.599884,235.868088 
	C285.740051,235.725693 289.940674,235.581879 294.029633,236.128387 
	C299.918121,236.915421 303.442993,245.435364 296.760315,252.055450 
	C297.968903,254.445679 299.218292,256.916626 300.998383,260.437195 
	C297.591278,259.855652 294.575073,260.101318 292.598236,258.785431 
	C290.694366,257.518097 289.864746,254.636932 288.563110,252.464813 
	C288.086029,252.706696 287.608948,252.948563 287.131866,253.190445 
	C287.013672,255.272339 286.895477,257.354218 286.761200,259.718994 
	C284.620605,259.718994 282.542297,259.718994 279.889740,259.718994 
	C279.889740,253.065628 279.889740,246.313675 279.889954,239.066299 
M286.784454,245.906601 
	C288.558655,246.219391 290.339600,246.735260 292.101532,246.676926 
	C292.462311,246.664963 293.347992,243.779373 292.964417,243.462677 
	C291.728485,242.442230 290.041748,241.685410 288.463501,241.541229 
	C288.014496,241.500214 287.343140,243.893097 286.784454,245.906601 
z"/>
<path fill="#050505" opacity="1.000000" stroke="none" 
	d="
M255.494263,241.994583 
	C254.806488,240.022949 254.539520,238.150543 254.228897,235.972015 
	C261.705658,235.972015 268.616730,235.972015 275.859161,235.972015 
	C275.859161,237.821716 275.859161,239.695816 275.859161,241.908981 
	C273.867493,242.016129 271.770203,242.128952 269.196899,242.267395 
	C269.196899,247.924637 269.196899,253.634369 269.196899,259.671692 
	C266.685455,259.671692 264.626953,259.671692 262.094635,259.671692 
	C262.094635,254.177628 262.094635,248.459610 262.094635,242.093811 
	C259.740143,242.093811 257.827606,242.093811 255.494263,241.994583 
z"/>
<path fill="#050505" opacity="1.000000" stroke="none" 
	d="
M365.057678,243.037857 
	C365.057678,248.839523 365.057678,254.144867 365.057678,259.727661 
	C362.746002,259.727661 360.674500,259.727661 358.316315,259.727661 
	C358.316315,251.900818 358.316315,244.009872 358.316315,235.923737 
	C360.423004,235.923737 362.375488,235.923737 365.057678,235.923737 
	C365.057678,238.057587 365.057678,240.299561 365.057678,243.037857 
z"/>
<path fill="#F3FBFF" opacity="1.000000" stroke="none" 
	d="
M126.013062,257.730560 
	C125.999565,250.279144 125.999565,243.301773 125.999565,235.676132 
	C131.571381,235.647156 137.412155,233.863419 141.482452,238.429749 
	C143.084991,240.227554 142.212433,244.231598 142.395828,247.256668 
	C142.699615,250.144089 144.221085,253.823715 142.991562,255.713547 
	C141.533646,257.954437 137.809235,259.403198 134.876236,259.806244 
	C132.053040,260.194244 128.986298,258.810120 126.013062,257.730560 
M135.123917,257.054413 
	C138.259644,257.009644 140.930817,256.190582 140.506775,252.347702 
	C140.149307,249.108246 136.082916,248.215637 129.447754,249.680847 
	C129.447754,252.062546 129.447754,254.433945 129.447754,257.059540 
	C131.303940,257.059540 132.780731,257.059540 135.123917,257.054413 
M132.494186,246.084427 
	C133.482880,246.075256 134.684738,246.422333 135.416809,245.984268 
	C137.044952,245.010086 138.437958,243.642914 139.926788,242.435898 
	C138.478867,241.210464 137.206757,239.457809 135.535980,238.900681 
	C133.685425,238.283615 131.470383,238.759598 128.657486,238.759598 
	C130.130875,241.718781 126.727798,245.275375 132.494186,246.084427 
z"/>
<path fill="#F3FBFF" opacity="1.000000" stroke="none" 
	d="
M164.884369,257.633057 
	C164.873947,250.208038 164.873947,243.247574 164.873947,235.472214 
	C167.426346,235.472214 169.670929,235.407349 171.910431,235.486145 
	C176.162994,235.635788 180.460327,235.975739 182.015396,240.934967 
	C183.481186,245.609467 181.467560,248.968201 177.076706,251.177765 
	C178.912643,254.040833 180.583633,256.646698 182.578873,259.758179 
	C175.332932,260.744965 176.347900,248.802765 167.933945,252.186859 
	C167.933945,253.917007 168.031006,256.003204 167.875336,258.070343 
	C167.828079,258.697937 167.082748,259.272980 166.657150,259.872070 
	C166.069687,259.280579 165.482239,258.689087 164.884369,257.633057 
M168.135788,247.193192 
	C170.485718,247.470215 172.992096,248.363007 175.133453,247.819016 
	C176.696182,247.422028 178.917404,245.021942 178.790741,243.713730 
	C178.626266,242.015320 176.713379,239.823303 175.020294,239.112045 
	C173.118515,238.313141 170.622696,238.928360 167.992874,238.928360 
	C167.992874,241.726700 167.992874,244.003174 168.135788,247.193192 
z"/>
<path fill="#F3FBFF" opacity="1.000000" stroke="none" 
	d="
M195.057251,235.470551 
	C197.479218,235.606827 199.481537,235.632141 201.450882,235.900024 
	C208.128113,236.808319 212.110855,241.508850 211.964783,248.185059 
	C211.821899,254.714996 207.391617,259.462952 200.770477,259.931000 
	C197.798355,260.141113 194.799026,259.966553 191.014359,259.966553 
	C191.014359,252.434555 190.909668,245.027283 191.172226,237.633072 
	C191.199234,236.872421 193.419800,236.189682 195.057251,235.470551 
M194.067230,252.322571 
	C194.155853,253.767303 194.244492,255.212036 194.339691,256.763885 
	C199.556778,257.252167 204.467148,257.668976 207.476089,252.667221 
	C209.526932,249.258102 209.379288,245.591843 206.989517,242.369766 
	C203.707993,237.945374 199.106339,238.483765 194.067230,239.202942 
	C194.067230,243.453705 194.067230,247.408585 194.067230,252.322571 
z"/>
<path fill="#FDFEFE" opacity="1.000000" stroke="none" 
	d="
M154.684692,236.524719 
	C155.728806,256.624329 155.536713,258.557159 152.066238,259.994110 
	C152.066238,252.380280 152.019318,244.993286 152.168503,237.610245 
	C152.178787,237.100601 153.651474,236.620514 154.684692,236.524719 
z"/>
<path fill="#F5F5F5" opacity="1.000000" stroke="none" 
	d="
M339.849701,241.976746 
	C344.545197,241.980240 347.434174,243.652679 347.080902,248.346817 
	C346.686432,253.588013 342.706970,253.708481 337.522766,253.782822 
	C338.178345,249.680496 338.793427,245.831757 339.849701,241.976746 
z"/>
<path fill="#F5F5F5" opacity="1.000000" stroke="none" 
	d="
M286.779114,245.538223 
	C287.343140,243.893097 288.014496,241.500214 288.463501,241.541229 
	C290.041748,241.685410 291.728485,242.442230 292.964417,243.462677 
	C293.347992,243.779373 292.462311,246.664963 292.101532,246.676926 
	C290.339600,246.735260 288.558655,246.219391 286.779114,245.538223 
z"/>
<path fill="#3CB8FF" opacity="1.000000" stroke="none" 
	d="
M134.690720,257.056976 
	C132.780731,257.059540 131.303940,257.059540 129.447754,257.059540 
	C129.447754,254.433945 129.447754,252.062546 129.447754,249.680847 
	C136.082916,248.215637 140.149307,249.108246 140.506775,252.347702 
	C140.930817,256.190582 138.259644,257.009644 134.690720,257.056976 
z"/>
<path fill="#3CB8FF" opacity="1.000000" stroke="none" 
	d="
M132.050217,246.080597 
	C126.727798,245.275375 130.130875,241.718781 128.657486,238.759598 
	C131.470383,238.759598 133.685425,238.283615 135.535980,238.900681 
	C137.206757,239.457809 138.478867,241.210464 139.926788,242.435913 
	C138.437958,243.642914 137.044952,245.010086 135.416809,245.984268 
	C134.684738,246.422333 133.482880,246.075256 132.050217,246.080597 
z"/>
<path fill="#39B6FF" opacity="1.000000" stroke="none" 
	d="
M168.064331,246.736420 
	C167.992874,244.003174 167.992874,241.726700 167.992874,238.928360 
	C170.622696,238.928360 173.118515,238.313141 175.020294,239.112045 
	C176.713379,239.823303 178.626266,242.015320 178.790741,243.713730 
	C178.917404,245.021942 176.696182,247.422028 175.133453,247.819016 
	C172.992096,248.363007 170.485718,247.470215 168.064331,246.736420 
z"/>
<path fill="#3CB8FF" opacity="1.000000" stroke="none" 
	d="
M194.067230,251.843018 
	C194.067230,247.408585 194.067230,243.453705 194.067230,239.202942 
	C199.106339,238.483765 203.707993,237.945374 206.989517,242.369766 
	C209.379288,245.591843 209.526932,249.258102 207.476089,252.667221 
	C204.467148,257.668976 199.556778,257.252167 194.339691,256.763885 
	C194.244492,255.212036 194.155853,253.767303 194.067230,251.843018 
z"/>
</svg>